<svg width="2431" height="768" viewBox="0 0 2431 768" fill="none" xmlns="http://www.w3.org/2000/svg">
<g filter="url(#filter0_d_503_54)">
<rect x="18" y="157" width="2395" height="446" rx="32" fill="white" stroke="black" stroke-width="28"/>
<rect x="827" y="443.167" width="625.318" height="446.656" rx="32" transform="rotate(-45 827 443.167)" fill="white" stroke="black" stroke-width="28"/>
<rect x="1142.83" y="1" width="625.318" height="446.656" rx="32" transform="rotate(45 1142.83 1)" fill="white" stroke="black" stroke-width="28"/>
<rect x="983" y="693" width="626" height="446" rx="32" transform="rotate(-90 983 693)" fill="white" stroke="black" stroke-width="28"/>
<path d="M1206 230C1170.28 230 1141.29 260.442 1141.29 297.95C1141.6 321.551 1153.78 341.498 1166.45 360.472C1152.33 349.781 1136.62 343.318 1119.71 343.25C1083.99 343.25 1055 373.692 1055 411.2C1055 448.708 1083.99 479.15 1119.71 479.15C1148.65 478.667 1171.8 458.418 1194.54 441.4C1190.47 492.234 1182.19 520.781 1134.09 532H1277.91C1229.81 520.781 1221.53 492.234 1217.46 441.4C1239.94 460.668 1263.52 477.013 1292.29 479.15C1328.01 479.15 1357 448.708 1357 411.2C1357 373.692 1328.01 343.25 1292.29 343.25C1274.95 343.25 1259.97 351.23 1245.55 360.472C1259.89 341.695 1269.34 321.438 1270.71 297.95C1270.71 260.442 1241.72 230 1206 230Z" fill="black"/>
</g>
<path d="M234.983 346.656C232.869 337.872 228.477 331.284 221.807 326.892C215.301 322.5 207.655 320.304 198.871 320.304C189.762 320.304 182.198 322.175 176.179 325.916C170.161 329.657 165.281 334.537 161.539 340.556C157.961 346.575 155.358 353.407 153.731 361.052C152.267 368.535 151.454 376.099 151.291 383.744C151.291 391.715 151.861 399.929 152.999 408.388C154.138 416.684 156.334 424.167 159.587 430.836C163.003 437.505 167.802 443.036 173.983 447.428C180.165 451.657 188.217 453.772 198.139 453.772C203.833 453.772 208.875 453.121 213.267 451.82C217.822 450.519 221.97 448.811 225.711 446.696C229.453 444.581 232.869 442.304 235.959 439.864C239.05 437.424 241.897 434.984 244.499 432.544L252.063 436.692C250.599 441.409 249.217 446.208 247.915 451.088C246.614 455.805 245.394 460.604 244.255 465.484C236.935 468.087 228.639 470.608 219.367 473.048C210.258 475.325 199.603 476.464 187.403 476.464C174.39 476.464 162.109 474.593 150.559 470.852C139.173 466.948 129.25 461.255 120.791 453.772C112.333 446.127 105.663 436.936 100.783 426.2C95.9034 415.301 93.4634 403.02 93.4634 389.356C93.4634 374.716 96.0661 361.784 101.271 350.56C106.477 339.173 113.553 329.576 122.499 321.768C131.609 313.96 142.263 308.104 154.463 304.2C166.663 300.133 179.677 298.1 193.503 298.1C203.263 298.1 213.105 299.239 223.027 301.516C233.113 303.631 242.791 306.477 252.063 310.056C251.575 312.821 250.925 315.587 250.111 318.352C249.461 320.955 248.81 323.639 248.159 326.404C247.346 329.82 246.695 333.236 246.207 336.652C245.719 339.905 245.231 343.24 244.743 346.656H234.983Z" fill="#C60000"/>
<path d="M307.674 418.148C309.464 418.311 311.253 418.392 313.042 418.392C314.832 418.392 316.621 418.392 318.41 418.392H329.146H339.882C341.672 418.392 343.461 418.392 345.25 418.392C347.04 418.392 348.829 418.311 350.618 418.148L329.634 361.296L307.674 418.148ZM289.618 475C286.853 474.349 284.088 473.861 281.322 473.536C278.72 473.048 275.954 472.804 273.026 472.804C270.261 472.804 267.496 473.048 264.73 473.536C262.128 473.861 259.688 474.349 257.41 475L271.806 442.548C274.084 437.668 276.605 432.056 279.37 425.712C282.136 419.205 284.982 412.292 287.91 404.972C291.001 397.652 294.173 390.007 297.426 382.036C300.68 374.065 303.933 366.095 307.186 358.124C308.976 353.569 311.009 348.364 313.286 342.508C315.564 336.489 317.76 330.633 319.874 324.94C321.989 319.084 323.941 313.879 325.73 309.324C327.52 304.607 328.821 301.272 329.634 299.32C332.4 299.971 335.246 300.54 338.174 301.028C341.102 301.353 343.949 301.516 346.714 301.516C349.642 301.516 352.57 301.353 355.498 301.028C358.426 300.54 361.273 299.971 364.038 299.32C365.828 305.176 368.105 312.089 370.87 320.06C373.636 327.868 376.564 336.164 379.654 344.948C382.908 353.569 386.161 362.272 389.414 371.056C392.83 379.677 396.002 387.729 398.93 395.212C402.346 403.833 405.356 411.479 407.958 418.148C410.724 424.817 413.326 431.161 415.766 437.18C418.206 443.036 420.728 448.973 423.33 454.992C426.096 461.011 429.186 467.68 432.602 475C427.885 474.024 422.598 473.455 416.742 473.292C410.886 472.967 405.518 472.804 400.638 472.804C395.433 472.804 390.146 473.048 384.778 473.536C379.573 473.861 374.368 474.349 369.162 475C367.536 468.819 365.828 462.881 364.038 457.188C362.412 451.495 360.541 445.801 358.426 440.108C353.058 440.108 347.69 440.108 342.322 440.108C336.954 439.945 331.586 439.864 326.218 439.864C321.989 439.864 317.678 439.945 313.286 440.108C309.057 440.108 304.828 440.108 300.598 440.108C298.321 445.801 296.369 451.576 294.742 457.432C293.116 463.288 291.408 469.144 289.618 475Z" fill="#C60000"/>
<path d="M508.164 380.328C508.978 380.491 509.71 380.653 510.36 380.816C511.174 380.816 511.987 380.816 512.8 380.816H517.192C527.278 380.816 534.272 378.051 538.176 372.52C542.243 366.827 544.276 359.263 544.276 349.828C544.276 342.996 543.3 337.628 541.348 333.724C539.559 329.82 537.282 326.892 534.516 324.94C531.751 322.825 528.66 321.524 525.244 321.036C521.991 320.548 518.9 320.304 515.972 320.304C514.671 320.304 513.37 320.385 512.068 320.548C510.767 320.548 509.466 320.629 508.164 320.792V380.328ZM566.968 398.872C570.384 404.565 574.044 410.747 577.948 417.416C582.015 423.923 586.163 430.511 590.392 437.18C594.622 443.849 598.851 450.437 603.08 456.944C607.31 463.451 611.376 469.469 615.28 475C609.587 474.349 603.894 473.861 598.2 473.536C592.507 473.048 586.814 472.804 581.12 472.804C575.59 472.804 570.384 473.048 565.504 473.536C560.624 473.861 555.5 474.349 550.132 475C543.626 462.312 537.038 449.787 530.368 437.424C523.862 424.899 516.704 412.292 508.896 399.604H508.164C508.164 410.34 508.246 422.459 508.408 435.96C508.734 449.299 509.222 462.312 509.872 475C505.155 474.349 500.438 473.861 495.72 473.536C491.003 473.048 486.123 472.804 481.08 472.804C476.526 472.804 471.727 473.048 466.684 473.536C461.804 473.861 456.599 474.349 451.068 475C451.882 466.704 452.532 456.863 453.02 445.476C453.671 433.927 453.996 422.296 453.996 410.584C453.996 405.216 453.915 398.547 453.752 390.576C453.752 382.443 453.671 373.496 453.508 363.736C453.346 353.976 453.102 343.728 452.776 332.992C452.451 322.093 452.044 311.195 451.556 300.296C457.25 301.109 462.862 301.679 468.392 302.004C474.086 302.329 479.535 302.492 484.74 302.492C492.548 302.492 500.275 302.167 507.92 301.516C515.728 300.703 523.536 300.296 531.344 300.296C539.478 300.296 547.611 300.865 555.744 302.004C564.04 303.143 571.442 305.42 577.948 308.836C584.618 312.089 589.986 316.807 594.052 322.988C598.282 329.007 600.396 337.059 600.396 347.144C600.396 359.507 596.818 369.104 589.66 375.936C582.666 382.768 573.312 387.404 561.6 389.844L566.968 398.872Z" fill="#C60000"/>
<path d="M745.872 385.696C745.872 371.056 744.652 359.425 742.212 350.804C739.772 342.183 736.518 335.676 732.452 331.284C728.385 326.729 723.668 323.801 718.3 322.5C712.932 321.199 707.32 320.548 701.464 320.548C697.885 320.548 693.981 320.792 689.752 321.28C689.426 328.275 689.182 335.025 689.02 341.532C688.857 347.876 688.776 354.708 688.776 362.028C688.776 368.372 688.776 375.611 688.776 383.744C688.938 391.715 689.02 399.929 689.02 408.388C689.02 416.684 689.02 424.899 689.02 433.032C689.182 441.003 689.264 448.16 689.264 454.504C690.565 454.667 691.785 454.748 692.924 454.748C694.062 454.748 695.282 454.748 696.584 454.748H704.148C712.444 454.748 719.276 453.365 724.644 450.6C730.012 447.672 734.241 443.361 737.332 437.668C740.585 431.975 742.781 424.817 743.92 416.196C745.221 407.575 745.872 397.408 745.872 385.696ZM804.92 385.452C804.92 394.236 803.862 402.776 801.748 411.072C799.796 419.205 796.949 426.688 793.208 433.52C789.466 440.352 784.993 446.452 779.788 451.82C774.582 457.025 768.726 461.173 762.22 464.264C757.99 466.379 754.086 468.168 750.508 469.632C747.092 470.933 743.594 471.991 740.016 472.804C736.6 473.617 733.021 474.187 729.28 474.512C725.538 474.837 721.39 475 716.836 475C708.377 475 700 474.675 691.704 474.024C683.408 473.211 675.03 472.804 666.572 472.804C660.716 472.804 654.86 473.048 649.004 473.536C643.31 474.024 637.617 474.512 631.924 475C632.737 461.824 633.388 449.217 633.876 437.18C634.364 424.98 634.608 412.292 634.608 399.116C634.608 383.012 634.445 366.908 634.12 350.804C633.794 334.7 633.225 317.864 632.412 300.296C637.292 300.947 642.172 301.516 647.052 302.004C651.932 302.329 656.812 302.492 661.692 302.492C669.988 302.492 678.04 302.167 685.848 301.516C693.818 300.703 701.952 300.296 710.248 300.296C721.472 300.296 731.882 301.272 741.48 303.224C751.077 305.176 760.593 309.161 770.028 315.18C775.884 318.921 781.008 323.476 785.4 328.844C789.792 334.049 793.452 339.743 796.38 345.924C799.308 351.943 801.422 358.368 802.724 365.2C804.188 371.869 804.92 378.62 804.92 385.452Z" fill="#C60000"/>
<path d="M1759.05 349.096C1755.8 338.848 1750.59 331.447 1743.43 326.892C1736.28 322.175 1727.25 319.816 1716.35 319.816C1706.43 319.816 1698.21 321.849 1691.7 325.916C1685.2 329.983 1679.99 335.351 1676.09 342.02C1672.35 348.527 1669.66 355.928 1668.04 364.224C1666.57 372.52 1665.84 380.816 1665.84 389.112C1665.84 412.048 1669.42 429.047 1676.58 440.108C1683.73 451.007 1695.2 456.456 1710.98 456.456C1713.75 456.456 1716.19 456.293 1718.3 455.968C1720.42 455.48 1722.61 454.911 1724.89 454.26C1724.89 444.5 1724.73 434.903 1724.4 425.468C1724.08 416.033 1723.75 406.436 1723.42 396.676C1728.3 397.327 1733.1 397.896 1737.82 398.384C1742.54 398.709 1747.01 398.872 1751.24 398.872C1755.8 398.872 1760.43 398.791 1765.15 398.628C1770.03 398.303 1774.66 397.652 1779.06 396.676C1778.57 407.412 1778.16 417.253 1777.84 426.2C1777.67 434.984 1777.59 443.361 1777.59 451.332C1777.59 453.609 1777.67 456.212 1777.84 459.14C1778 462.068 1778.16 464.427 1778.32 466.216C1773.61 467.517 1768.4 468.819 1762.71 470.12C1757.02 471.421 1751.16 472.56 1745.14 473.536C1739.12 474.512 1733.02 475.244 1726.84 475.732C1720.82 476.383 1715.05 476.708 1709.52 476.708C1695.85 476.708 1682.84 474.919 1670.48 471.34C1658.28 467.599 1647.46 461.987 1638.02 454.504C1628.75 447.021 1621.35 437.749 1615.82 426.688C1610.45 415.464 1607.77 402.532 1607.77 387.892C1607.77 374.228 1610.29 361.865 1615.33 350.804C1620.54 339.743 1627.7 330.308 1636.8 322.5C1645.91 314.692 1656.65 308.673 1669.01 304.444C1681.54 300.215 1695.2 298.1 1710 298.1C1721.72 298.1 1733.51 299.32 1745.38 301.76C1757.26 304.2 1768.56 307.779 1779.3 312.496C1776.54 319.003 1774.26 325.021 1772.47 330.552C1770.84 336.083 1769.38 342.264 1768.08 349.096H1759.05Z" fill="#C60000"/>
<path d="M1840.82 418.148C1842.61 418.311 1844.4 418.392 1846.19 418.392C1847.98 418.392 1849.77 418.392 1851.56 418.392H1862.29H1873.03C1874.82 418.392 1876.61 418.392 1878.4 418.392C1880.19 418.392 1881.98 418.311 1883.76 418.148L1862.78 361.296L1840.82 418.148ZM1822.76 475C1820 474.349 1817.23 473.861 1814.47 473.536C1811.87 473.048 1809.1 472.804 1806.17 472.804C1803.41 472.804 1800.64 473.048 1797.88 473.536C1795.27 473.861 1792.83 474.349 1790.56 475L1804.95 442.548C1807.23 437.668 1809.75 432.056 1812.52 425.712C1815.28 419.205 1818.13 412.292 1821.06 404.972C1824.15 397.652 1827.32 390.007 1830.57 382.036C1833.83 374.065 1837.08 366.095 1840.33 358.124C1842.12 353.569 1844.16 348.364 1846.43 342.508C1848.71 336.489 1850.91 330.633 1853.02 324.94C1855.14 319.084 1857.09 313.879 1858.88 309.324C1860.67 304.607 1861.97 301.272 1862.78 299.32C1865.55 299.971 1868.39 300.54 1871.32 301.028C1874.25 301.353 1877.1 301.516 1879.86 301.516C1882.79 301.516 1885.72 301.353 1888.64 301.028C1891.57 300.54 1894.42 299.971 1897.18 299.32C1898.97 305.176 1901.25 312.089 1904.02 320.06C1906.78 327.868 1909.71 336.164 1912.8 344.948C1916.05 353.569 1919.31 362.272 1922.56 371.056C1925.98 379.677 1929.15 387.729 1932.08 395.212C1935.49 403.833 1938.5 411.479 1941.1 418.148C1943.87 424.817 1946.47 431.161 1948.91 437.18C1951.35 443.036 1953.87 448.973 1956.48 454.992C1959.24 461.011 1962.33 467.68 1965.75 475C1961.03 474.024 1955.74 473.455 1949.89 473.292C1944.03 472.967 1938.66 472.804 1933.78 472.804C1928.58 472.804 1923.29 473.048 1917.92 473.536C1912.72 473.861 1907.51 474.349 1902.31 475C1900.68 468.819 1898.97 462.881 1897.18 457.188C1895.56 451.495 1893.69 445.801 1891.57 440.108C1886.2 440.108 1880.84 440.108 1875.47 440.108C1870.1 439.945 1864.73 439.864 1859.36 439.864C1855.14 439.864 1850.82 439.945 1846.43 440.108C1842.2 440.108 1837.97 440.108 1833.74 440.108C1831.47 445.801 1829.52 451.576 1827.89 457.432C1826.26 463.288 1824.55 469.144 1822.76 475Z" fill="#C60000"/>
<path d="M2122.56 379.596C2115.24 395.375 2108.17 411.479 2101.33 427.908C2094.5 444.337 2088.48 459.791 2083.28 474.268C2081.33 473.943 2079.37 473.699 2077.42 473.536C2075.63 473.211 2073.6 473.048 2071.32 473.048C2069.53 473.048 2067.58 473.211 2065.47 473.536C2063.51 473.699 2061.4 473.943 2059.12 474.268C2055.06 463.044 2050.58 452.064 2045.7 441.328C2040.99 430.592 2036.43 419.612 2032.04 408.388C2029.27 401.556 2026.35 394.968 2023.25 388.624C2020.16 382.117 2017.24 375.448 2014.47 368.616C2012.68 377.563 2011.22 386.509 2010.08 395.456C2008.94 404.24 2007.8 413.268 2006.66 422.54C2005.36 433.276 2004.3 442.955 2003.49 451.576C2002.68 460.197 2002.11 468.005 2001.78 475C1996.9 473.536 1991.86 472.804 1986.65 472.804C1983.89 472.804 1981.21 473.048 1978.6 473.536C1976 473.861 1973.32 474.349 1970.55 475C1973.8 462.637 1976.65 450.356 1979.09 438.156C1981.53 425.793 1983.89 413.268 1986.17 400.58C1988.93 386.265 1991.37 371.3 1993.49 355.684C1995.6 340.068 1997.23 324.859 1998.37 310.056L1999.1 300.296C2002.84 301.109 2006.58 301.679 2010.32 302.004C2014.06 302.329 2017.81 302.492 2021.55 302.492C2025.61 302.492 2029.44 302.329 2033.01 302.004C2036.59 301.679 2040.33 301.109 2044.24 300.296C2045.7 304.525 2047.49 309.487 2049.61 315.18C2051.72 320.711 2054 326.648 2056.44 332.992C2059.04 339.173 2061.73 345.599 2064.49 352.268C2067.42 358.775 2070.27 365.2 2073.03 371.544C2075.8 377.725 2078.48 383.663 2081.08 389.356C2083.85 395.049 2086.29 400.092 2088.4 404.484C2095.72 387.404 2103.12 370.08 2110.61 352.512C2118.25 334.781 2125.08 317.376 2131.1 300.296C2134.68 301.109 2138.26 301.679 2141.84 302.004C2145.42 302.329 2149.08 302.492 2152.82 302.492C2156.56 302.492 2160.38 302.411 2164.29 302.248C2168.19 301.923 2172.01 301.272 2175.75 300.296L2178.68 331.772C2179.33 338.116 2180.15 345.517 2181.12 353.976C2182.1 362.272 2183.07 370.975 2184.05 380.084C2185.19 389.193 2186.41 398.465 2187.71 407.9C2189.01 417.335 2190.23 426.281 2191.37 434.74C2192.67 443.199 2193.97 450.925 2195.27 457.92C2196.58 464.915 2197.8 470.608 2198.93 475C2193.73 474.349 2188.69 473.861 2183.81 473.536C2179.09 473.048 2174.21 472.804 2169.17 472.804C2164.29 472.804 2159.41 473.048 2154.53 473.536C2149.65 473.861 2144.85 474.349 2140.13 475C2139.32 464.264 2138.42 453.772 2137.45 443.524C2136.63 433.276 2135.66 422.784 2134.52 412.048C2133.71 404.077 2132.73 396.025 2131.59 387.892C2130.45 379.596 2129.39 372.52 2128.42 366.664L2122.56 379.596Z" fill="#C60000"/>
<path d="M2298.6 450.356C2300.87 450.356 2303.96 450.356 2307.87 450.356C2311.93 450.193 2316.16 450.031 2320.56 449.868C2324.95 449.705 2329.18 449.543 2333.24 449.38C2337.47 449.055 2340.89 448.811 2343.49 448.648C2343.17 450.925 2342.84 453.284 2342.52 455.724C2342.35 458.001 2342.27 460.279 2342.27 462.556C2342.27 464.671 2342.35 466.785 2342.52 468.9C2342.84 471.015 2343.17 473.048 2343.49 475C2333.57 474.187 2323.65 473.617 2313.72 473.292C2303.96 472.967 2294.2 472.804 2284.44 472.804C2274.52 472.804 2264.6 472.967 2254.68 473.292C2244.75 473.617 2234.83 474.187 2224.91 475C2225.4 471.584 2225.72 468.331 2225.88 465.24C2226.21 462.149 2226.37 458.571 2226.37 454.504C2226.53 450.275 2226.62 445.232 2226.62 439.376C2226.78 433.357 2226.86 425.712 2226.86 416.44V389.844C2226.86 376.993 2226.78 366.42 2226.62 358.124C2226.62 349.665 2226.53 342.264 2226.37 335.92C2226.21 329.576 2225.96 323.72 2225.64 318.352C2225.31 312.984 2224.91 306.965 2224.42 300.296C2232.88 300.947 2241.34 301.516 2249.8 302.004C2258.25 302.329 2266.71 302.492 2275.17 302.492C2279.89 302.492 2285.26 302.492 2291.28 302.492C2297.46 302.329 2303.64 302.248 2309.82 302.248C2316.16 302.085 2322.26 301.841 2328.12 301.516C2333.98 301.191 2339.1 300.784 2343.49 300.296C2343.17 302.573 2342.84 304.769 2342.52 306.884C2342.35 308.836 2342.27 310.951 2342.27 313.228C2342.27 315.505 2342.35 317.783 2342.52 320.06C2342.84 322.337 2343.17 324.615 2343.49 326.892C2337.31 326.567 2331.21 326.241 2325.19 325.916C2319.17 325.428 2313.15 325.184 2307.14 325.184H2281.52V373.008C2283.47 373.008 2286.4 373.008 2290.3 373.008C2294.2 372.845 2298.76 372.683 2303.96 372.52C2309.33 372.357 2315.19 372.113 2321.53 371.788C2327.88 371.463 2334.46 371.056 2341.3 370.568C2340.97 372.845 2340.64 375.041 2340.32 377.156C2340.16 379.108 2340.08 381.223 2340.08 383.5C2340.08 387.729 2340.48 392.121 2341.3 396.676C2336.42 396.351 2331.7 396.107 2327.14 395.944C2322.75 395.619 2318.2 395.375 2313.48 395.212C2308.92 394.887 2304.04 394.724 2298.84 394.724C2293.63 394.561 2287.86 394.48 2281.52 394.48V450.356H2298.6Z" fill="#C60000"/>
<defs>
<filter id="filter0_d_503_54" x="0" y="0.254883" width="2431" height="767.49" filterUnits="userSpaceOnUse" color-interpolation-filters="sRGB">
<feFlood flood-opacity="0" result="BackgroundImageFix"/>
<feColorMatrix in="SourceAlpha" type="matrix" values="0 0 0 0 0 0 0 0 0 0 0 0 0 0 0 0 0 0 127 0" result="hardAlpha"/>
<feOffset dy="4"/>
<feGaussianBlur stdDeviation="2"/>
<feComposite in2="hardAlpha" operator="out"/>
<feColorMatrix type="matrix" values="0 0 0 0 0 0 0 0 0 0 0 0 0 0 0 0 0 0 0.25 0"/>
<feBlend mode="normal" in2="BackgroundImageFix" result="effect1_dropShadow_503_54"/>
<feBlend mode="normal" in="SourceGraphic" in2="effect1_dropShadow_503_54" result="shape"/>
</filter>
</defs>
</svg>
